<?xml version="1.0" encoding="UTF-8"?>
<svg xmlns="http://www.w3.org/2000/svg" width="200" height="200" viewBox="-100 -100 200 200">
  <path
    d="M 100 0 A 100 100 0 1 0 -100 0 A 100 100 0 1 0 100 0 Z M 80 0 A 80 80 0 1 0 -80 0 A 80 80 0 1 0 80 0 Z"
    fill="#000"
    fill-rule="evenodd"
  />
  <path
    d="M 10,-10.1 L 70,-10.1 L 80,-20 L 80,20 L 70,10.1 L 10,10.1 L 0,20 L 0,16 L 8,0 L 0,-16  L 0,-20 z"
    fill="#000"
    transform="rotate(-90)"
  />
  <path
    d="M 10,-10.1 L 70,-10.1 L 80,-20 L 80,20 L 70,10.1 L 10,10.1 L 0,20 L 0,16 L 8,0 L 0,-16  L 0,-20 z"
    fill="#000"
    transform="rotate(30)"
  />
  <path
    d="M 10,-10.1 L 70,-10.1 L 80,-20 L 80,20 L 70,10.1 L 10,10.1 L 0,20 L 0,16 L 8,0 L 0,-16  L 0,-20 z"
    fill="#000"
    transform="rotate(150)"
  />
  <path
    d="M 10 0 A 10 10 0 1 0 -10 0 A 10 10 0 1 0 10 0 Z M 6 0 A 6 6 0 1 0 -6 0 A 6 6 0 1 0 6 0 Z"
    fill="#000"
    fill-rule="evenodd"
  />
</svg>
