<?xml version="1.0" encoding="UTF-8"?>
<svg xmlns="http://www.w3.org/2000/svg" width="200" height="200" viewBox="-100 -100 200 200">
  <path
    d="
      M 100 0
      A 100 100 0 1 0 -100 0
      A 100 100 0 1 0 100 0
      Z
      M 76 0
      A 76 76 0 1 1 -76 0
      A 76 76 0 1 1 76 0
      Z
    "
    fill="#000"
    fill-rule="evenodd"
  />
  <path d="M 10,-12 L 70,-12 L 80,-20 L 80,20 L 70,12 L 10,12 L 0,20 L 0,16 L 8,0 L 0,-16  L 0,-20 z" 
  fill="#000" 
  transform="rotate(-90)" />
  <path
    d="M 10,-12 L 70,-12 L 80,-20 L 80,20 L 70,12 L 10,12 L 0,20 L 0,16 L 8,0 L 0,-16  L 0,-20 z"
    fill="#000"
    transform="rotate(30)"
  />
  <path
    d="M 10,-12 L 70,-12 L 80,-20 L 80,20 L 70,12 L 10,12 L 0,20 L 0,16 L 8,0 L 0,-16  L 0,-20 z"
    fill="#000"
    transform="rotate(150)"
  />
  <path
    d="
      M 10 0
      A 10 10 0 1 0 -10 0
      A 10 10 0 1 0 10 0
      Z
      M 5 0
      A 5 5 0 1 1 -5 0
      A 5 5 0 1 1 5 0
      Z
    "
    fill="#000"
    fill-rule="evenodd"
  />
</svg>
